<?xml version="1.0" encoding="UTF-8"?>
<svg width="500px" height="500px" viewBox="0 0 500 500" version="1.1" xmlns="http://www.w3.org/2000/svg" xmlns:xlink="http://www.w3.org/1999/xlink">
    <!-- Generator: Sketch 61 (89581) - https://sketch.com -->
    <title>greater-gatsby-emblem-only</title>
    <desc>Created with Sketch.</desc>
    <defs>
        <polygon id="path-1" points="0.303256842 0.967040506 204.408815 0.967040506 204.408815 34.1308063 0.303256842 34.1308063"></polygon>
    </defs>
    <g id="greater-gatsby-emblem-only" stroke="none" stroke-width="1" fill="none" fill-rule="evenodd">
        <g id="greater-gatsby-emblem" transform="translate(109.000000, 15.000000)">
            <g id="Group-16">
                <path d="M63.0018771,412.752682 C41.9061634,391.642343 30.8554602,363.494429 30.8554602,336.352905 L140.353224,444.921386 C112.224812,443.916188 84.0975907,433.863021 63.0018771,412.752682" id="Fill-1" fill="#FEFEFE"></path>
                <path d="M165.466585,441.904839 L33.8697975,310.216817 C44.9193091,260.958564 89.1197385,223.763872 141.357368,223.763872 C178.52629,223.763872 210.672707,241.858619 230.76392,269.000143 L215.695212,282.068903 C198.617503,258.948169 171.494783,243.869014 141.357368,243.869014 C102.179444,243.869014 69.0285259,269.000143 55.9700122,304.184439 L171.494783,419.789303 C200.626505,409.736136 222.727911,384.605007 229.759419,354.44789 L181.539793,354.44789 L181.539793,334.341556 L251.859633,334.341556 C251.859633,386.616594 214.690711,430.847667 165.466585,441.904839" id="Fill-3" fill="#FEFEFE"></path>
                <path d="M63.0018771,407.983062 C41.9061634,386.872723 30.8554602,358.724809 30.8554602,331.583285 L140.353224,440.151766 C112.224812,439.146568 84.0975907,429.093401 63.0018771,407.983062 M230.764277,264.230285 L215.69557,277.299044 C198.61786,254.17831 171.493949,239.099155 141.357725,239.099155 C102.179801,239.099155 69.0288834,264.230285 55.9703697,299.414581 L171.493949,415.019444 C200.626862,404.967469 222.727077,379.83634 229.759776,349.678031 L181.540151,349.678031 L181.540151,329.57289 L251.859991,329.57289 C251.859991,381.846735 214.689877,426.077809 165.466942,437.134981 L33.8689634,305.446958 C42.0753676,268.869933 68.5653592,238.962029 103.044888,225.97793 C84.1964918,225.087204 66.6278518,223.565695 51.3065297,221.474216 C20.3933971,247.290978 0.718045474,286.129996 0.718045474,329.57289 C0.718045474,407.299814 63.6846518,470.310074 141.357725,470.310074 C219.030799,470.310074 281.996214,407.299814 281.996214,329.57289 C281.996214,286.323166 262.493641,247.637968 231.817633,221.821206 C216.516568,223.812523 199.096875,225.250563 180.479645,226.0769 C200.825856,233.751219 218.164521,247.211087 230.764277,264.230285" id="Fill-5" fill="#62398D"></path>
                <path d="M278.681718,191.369923 C263.3032,201.228728 208.332088,208.528632 142.866741,208.528632 C77.3990105,208.528632 22.4314737,201.228728 7.05295579,191.369923 C4.25393684,189.575354 2.75731368,187.696123 2.75731368,185.76085 L2.75731368,196.977804 C2.75731368,209.551716 65.4879874,219.744394 142.866741,219.744394 C220.244303,219.744394 282.976168,209.551716 282.976168,196.977804 L282.976168,185.76085 C282.976168,187.696123 281.480737,189.575354 278.681718,191.369923" id="Fill-7" fill="#020303"></path>
                <path d="M278.681718,191.369923 C263.3032,201.228728 208.332088,208.528632 142.866741,208.528632 C77.3990105,208.528632 22.4314737,201.228728 7.05295579,191.369923 C4.25393684,189.575354 2.75731368,187.696123 2.75731368,185.76085 L2.75731368,196.977804 C2.75731368,209.551716 65.4879874,219.744394 142.866741,219.744394 C220.244303,219.744394 282.976168,209.551716 282.976168,196.977804 L282.976168,185.76085 C282.976168,187.696123 281.480737,189.575354 278.681718,191.369923" id="Fill-9" fill="#020303"></path>
                <path d="M246.548647,162.972916 L246.548647,33.5397311 L246.52124,33.5397311 C246.523624,33.4801109 246.548647,33.4276451 246.548647,33.3680248 L246.548647,25.2000501 C246.548647,26.6070881 244.64212,27.9795463 242.605712,29.2852299 C240.246386,30.7995843 236.581089,32.2268932 231.831455,33.5421159 C214.037607,38.4715185 180.918861,41.7840197 143.273308,41.7840197 C105.628946,41.7840197 72.1312783,38.4691337 54.1777583,33.5397311 C49.3888025,32.2245084 45.6925246,30.7971995 43.3331983,29.2828451 C41.2955983,27.9759691 39.1865036,26.6070881 39.1865036,25.2000501 L39.1865036,33.371602 C39.1865036,33.4300299 39.207952,33.4836881 39.2139099,33.5421159 L39.1865036,33.5421159 L39.1865036,162.975301 C16.5524615,167.016362 2.757552,172.389339 2.757552,178.286974 C2.757552,190.860886 65.4870341,201.053564 142.866979,201.053564 C220.244541,201.053564 282.976407,190.860886 282.976407,178.286974 C282.976407,172.386954 269.179114,167.013977 246.548647,162.972916" id="Fill-11" fill="#020303"></path>
                <g id="Group-15" transform="translate(40.513684, 0.000000)">
                    <mask id="mask-2" fill="white">
                        <use xlink:href="#path-1"></use>
                    </mask>
                    <g id="Clip-14"></g>
                    <path d="M102.353653,0.966444304 C45.99316,0.966444304 0.303256842,8.38916582 0.303256842,17.5468367 C0.303256842,21.4793886 8.73725263,25.0876063 22.8014589,27.9314924 C41.5068653,31.7114165 70.1834042,34.1308063 102.356036,34.1308063 C134.525093,34.1308063 163.202823,31.7114165 181.910613,27.9314924 C195.977202,25.0876063 204.408815,21.4793886 204.408815,17.5468367 C204.408815,8.38916582 158.711762,0.966444304 102.353653,0.966444304" id="Fill-13" fill="#020303" mask="url(#mask-2)"></path>
                </g>
            </g>
        </g>
    </g>
</svg>