<?xml version="1.0" encoding="UTF-8"?>
<svg width="500px" height="500px" viewBox="0 0 500 500" version="1.1" xmlns="http://www.w3.org/2000/svg" xmlns:xlink="http://www.w3.org/1999/xlink">
    <!-- Generator: Sketch 61 (89581) - https://sketch.com -->
    <title>greater-gatsby-logo-full-bg</title>
    <desc>Created with Sketch.</desc>
    <defs>
        <polygon id="path-1" points="0.2036 0.6488 137.2356 0.6488 137.2356 22.8988 0.2036 22.8988"></polygon>
    </defs>
    <g id="greater-gatsby-logo-full-bg" stroke="none" stroke-width="1" fill="none" fill-rule="evenodd">
        <rect fill="#FFFFFF" x="0" y="0" width="500" height="500"></rect>
        <g id="greater-gatsby-emblem" transform="translate(160.200000, 20.151200)">
            <g id="Group-16">
                <path d="M42.29808,276.92112 C28.13488,262.75792 20.71568,243.87312 20.71568,225.66352 L94.23008,298.50352 C75.34528,297.82912 56.46128,291.08432 42.29808,276.92112" id="Fill-1" fill="#FEFEFE"></path>
                <path d="M111.09064,296.47968 L22.73944,208.12848 C30.15784,175.08048 59.83304,150.12608 94.90424,150.12608 C119.85864,150.12608 141.44104,162.26608 154.92984,180.47568 L144.81304,189.24368 C133.34744,173.73168 115.13784,163.61488 94.90424,163.61488 C68.60104,163.61488 46.34424,180.47568 37.57704,204.08128 L115.13784,281.64208 C134.69624,274.89728 149.53464,258.03648 154.25544,237.80368 L121.88184,237.80368 L121.88184,224.31408 L169.09304,224.31408 C169.09304,259.38608 144.13864,289.06128 111.09064,296.47968" id="Fill-3" fill="#FEFEFE"></path>
                <path d="M42.29808,273.72112 C28.13488,259.55792 20.71568,240.67312 20.71568,222.46352 L94.23008,295.30352 C75.34528,294.62912 56.46128,287.88432 42.29808,273.72112 M154.93008,177.27552 L144.81328,186.04352 C133.34768,170.53152 115.13728,160.41472 94.90448,160.41472 C68.60128,160.41472 46.34448,177.27552 37.57728,200.88112 L115.13728,278.44192 C134.69648,271.69792 149.53408,254.83712 154.25568,234.60352 L121.88208,234.60352 L121.88208,221.11472 L169.09328,221.11472 C169.09328,256.18592 144.13808,285.86112 111.09088,293.27952 L22.73888,204.92832 C28.24848,180.38832 46.03328,160.32272 69.18208,151.61152 C56.52768,151.01392 44.73248,149.99312 34.44608,148.58992 C13.69168,165.91072 0.48208,191.96832 0.48208,221.11472 C0.48208,273.26272 42.75648,315.53712 94.90448,315.53712 C147.05248,315.53712 189.32608,273.26272 189.32608,221.11472 C189.32608,192.09792 176.23248,166.14352 155.63728,148.82272 C145.36448,150.15872 133.66928,151.12352 121.17008,151.67792 C134.83008,156.82672 146.47088,165.85712 154.93008,177.27552" id="Fill-5" fill="#62398D"></path>
                <path d="M187.1008,128.39256 C176.776,135.00696 139.8696,139.90456 95.9176,139.90456 C51.964,139.90456 15.06,135.00696 4.7352,128.39256 C2.856,127.18856 1.8512,125.92776 1.8512,124.62936 L1.8512,132.15496 C1.8512,140.59096 43.9672,147.42936 95.9176,147.42936 C147.8672,147.42936 189.984,140.59096 189.984,132.15496 L189.984,124.62936 C189.984,125.92776 188.98,127.18856 187.1008,128.39256" id="Fill-7" fill="#020303"></path>
                <path d="M187.1008,128.39256 C176.776,135.00696 139.8696,139.90456 95.9176,139.90456 C51.964,139.90456 15.06,135.00696 4.7352,128.39256 C2.856,127.18856 1.8512,125.92776 1.8512,124.62936 L1.8512,132.15496 C1.8512,140.59096 43.9672,147.42936 95.9176,147.42936 C147.8672,147.42936 189.984,140.59096 189.984,132.15496 L189.984,124.62936 C189.984,125.92776 188.98,127.18856 187.1008,128.39256" id="Fill-9" fill="#020303"></path>
                <path d="M165.52736,109.34064 L165.52736,22.50224 L165.50896,22.50224 C165.51056,22.46224 165.52736,22.42704 165.52736,22.38704 L165.52736,16.90704 C165.52736,17.85104 164.24736,18.77184 162.88016,19.64784 C161.29616,20.66384 158.83536,21.62144 155.64656,22.50384 C143.70016,25.81104 121.46496,28.03344 96.19056,28.03344 C70.91696,28.03344 48.42736,25.80944 36.37376,22.50224 C33.15856,21.61984 30.67696,20.66224 29.09296,19.64624 C27.72496,18.76944 26.30896,17.85104 26.30896,16.90704 L26.30896,22.38944 C26.30896,22.42864 26.32336,22.46464 26.32736,22.50384 L26.30896,22.50384 L26.30896,109.34224 C11.11296,112.05344 1.85136,115.65824 1.85136,119.61504 C1.85136,128.05104 43.96656,134.88944 95.91776,134.88944 C147.86736,134.88944 189.98416,128.05104 189.98416,119.61504 C189.98416,115.65664 180.72096,112.05184 165.52736,109.34064" id="Fill-11" fill="#020303"></path>
                <g id="Group-15" transform="translate(27.200000, 0.000000)">
                    <mask id="mask-2" fill="white">
                        <use xlink:href="#path-1"></use>
                    </mask>
                    <g id="Clip-14"></g>
                    <path d="M68.718,0.6484 C30.8788,0.6484 0.2036,5.6284 0.2036,11.7724 C0.2036,14.4108 5.866,16.8316 15.3084,18.7396 C27.8668,21.2756 47.1196,22.8988 68.7196,22.8988 C90.3172,22.8988 109.5708,21.2756 122.1308,18.7396 C131.5748,16.8316 137.2356,14.4108 137.2356,11.7724 C137.2356,5.6284 106.5556,0.6484 68.718,0.6484" id="Fill-13" fill="#020303" mask="url(#mask-2)"></path>
                </g>
            </g>
        </g>
        <g id="greater-gatsby-text" transform="translate(74.283600, 331.291731)" fill="#1D1D1B" font-family="Futura-Medium, Futura" font-size="56.24736" font-weight="400" letter-spacing="0.00879999995">
            <text id="greater-gatsby">
                <tspan x="0" y="58">g</tspan>
                <tspan x="33.6803153" y="58" letter-spacing="-0.373682046">r</tspan>
                <tspan x="53.9599608" y="58">ea</tspan>
                <tspan x="118.821319" y="58" letter-spacing="0.531900454">t</tspan>
                <tspan x="135.227719" y="58">e</tspan>
                <tspan x="166.353832" y="58" letter-spacing="-0.621170425">r</tspan>
                <tspan x="186.138809" y="58">-gats</tspan>
                <tspan x="304.033112" y="58" letter-spacing="-1.03177614">b</tspan>
                <tspan x="335.711593" y="58">y</tspan>
            </text>
        </g>
        <g id="greater-gatsby-description" transform="translate(21.000000, 414.854078)" fill="#666666" font-family="Futura-Medium, Futura" font-size="22.42544" font-weight="400">
            <text id="a-lightweight-GatsbyJS-starter-" letter-spacing="0.00879999995">
                <tspan x="74" y="23">a light</tspan>
                <tspan x="137.450698" y="23" letter-spacing="-0.332066679">w</tspan>
                <tspan x="154.13481" y="23">eight Gats</tspan>
                <tspan x="258.553665" y="23" letter-spacing="-0.406070662">b</tspan>
                <tspan x="271.188952" y="23">yJS s</tspan>
                <tspan x="321.712091" y="23" letter-spacing="0.215114045">t</tspan>
                <tspan x="328.25626" y="23">a</tspan>
                <tspan x="341.711564" y="23" letter-spacing="0.820600891">r</tspan>
                <tspan x="351.7301" y="23" letter-spacing="0.215114045">t</tspan>
                <tspan x="358.274269" y="23">er </tspan>
            </text>
            <g id="Group" stroke-width="1" fill-rule="evenodd" transform="translate(4.000000, 27.000000)">
                <text id="with-TypeScript,-" letter-spacing="0.00879999995">
                    <tspan x="0" y="23">wi</tspan>
                    <tspan x="22.9576863" y="23" letter-spacing="0.466278982">t</tspan>
                    <tspan x="30.0048684" y="23">h </tspan>
                    <tspan x="49.2395812" y="23" letter-spacing="-0.989132118">T</tspan>
                    <tspan x="58.0615791" y="23">ypeSc</tspan>
                    <tspan x="119.906938" y="23" letter-spacing="0.34742415">r</tspan>
                    <tspan x="128.98145" y="23">i</tspan>
                    <tspan x="134.57471" y="23" letter-spacing="0.197173691">p</tspan>
                    <tspan x="148.415487" y="23">t,</tspan>
                    <tspan x="161.485393" y="23"> </tspan>
                </text>
                <text id="TailwindCSS-and-Storybook" letter-spacing="-0.924098301">
                    <tspan x="166.819585" y="23">T</tspan>
                    <tspan x="175.772317" y="23" letter-spacing="0.00879999995">ailwindCSS</tspan>
                    <tspan x="291.020645" y="23" letter-spacing="-0.00241272002"> </tspan>
                    <tspan x="297.938583" y="23" letter-spacing="0.00879999995">and </tspan>
                    <tspan x="344.083904" y="23" letter-spacing="0.392275023">S</tspan>
                    <tspan x="357.933633" y="23" letter-spacing="0.172505713">t</tspan>
                    <tspan x="364.391394" y="23" letter-spacing="0.00879999995">o</tspan>
                    <tspan x="377.879548" y="23" letter-spacing="0.995519352">r</tspan>
                    <tspan x="388.2482" y="23" letter-spacing="0.00879999995">ybook</tspan>
                </text>
            </g>
        </g>
    </g>
</svg>